<svg xmlns="http://www.w3.org/2000/svg" style="display: none;">
    <defs>
        <style>
            .svg-color{fill:#2a387a}
        </style>
    </defs><symbol id="icon-blocked_content" viewBox="0 0 19 19">
    
    <title>
        blocked_content
    </title>
    <path class="svg-color" d="M1813 610.5a9.5 9.5 0 1 1-9.5 9.5 9.5 9.5 0 0 1 9.5-9.5zm-6.33 9.5a6.3 6.3 0 0 0 .73 2.95l8.55-8.55a6.33 6.33 0 0 0-9.28 5.6zm12.67 0a6.3 6.3 0 0 0-.73-2.95l-8.55 8.55a6.33 6.33 0 0 0 9.27-5.6z" transform="translate(-1803.5 -610.5)"/>
</symbol><symbol id="icon-create_widget" viewBox="0 0 16 16">
    
    <title>
        create_widget
    </title>
    <path class="svg-color" d="M1820 578h-5v-5a1 1 0 0 0-1-1h-2a1 1 0 0 0-1 1v5h-5a1 1 0 0 0-1 1v2a1 1 0 0 0 1 1h5v5a1 1 0 0 0 1 1h2a1 1 0 0 0 1-1v-5h5a1 1 0 0 0 1-1v-2a1 1 0 0 0-1-1z" transform="translate(-1805 -572)"/>
</symbol><symbol id="icon-delete" viewBox="0 0 15.97 15.97">
    
    <title>
        delete
    </title>
    <rect class="svg-color" x="1803.15" y="498" width="19.7" height="4" rx="1" ry="1" transform="rotate(45 1504.402 -1924.856)"/>
    <rect class="svg-color" x="1803.12" y="498" width="19.76" height="4" rx="1" ry="1" transform="rotate(135 1012.391 -119.84)"/>
</symbol><symbol id="icon-get_sourcecode" viewBox="0 0 20 16.61">
    
    <title>
        get_sourcecode
    </title>
    <path class="svg-color" d="M1816 664l4-4-4-4 2-2 4.29 4.29a2.41 2.41 0 0 1 .71 1.71 2.41 2.41 0 0 1-.71 1.71L1818 666zM1810 664l-4-4 4-4-2-2-4.29 4.29a2.41 2.41 0 0 0-.71 1.71 2.41 2.41 0 0 0 .71 1.71L1808 666z" transform="translate(-1803 -651.7)"/>
    <path class="svg-color" transform="rotate(-75.99 494.24 1488.27)" d="M1804.75 658.75h16.49v2.5h-16.49z"/>
</symbol><symbol id="icon-pause" viewBox="0 0 13 15.42">
    
    <title>
        pause
    </title>
    <rect class="svg-color" width="5" height="15.42" rx="1.71" ry="1.71"/>
    <rect class="svg-color" x="8" width="5" height="15.42" rx="1.71" ry="1.71"/>
</symbol><symbol id="icon-play" viewBox="0 0 14 17">
    
    <title>
        play
    </title>
    <path class="svg-color" d="M1805.79 466.58v-13.16a2.08 2.08 0 0 1 3.34-1.5l9.8 6.53a1.83 1.83 0 0 1 0 3.11l-9.8 6.53a2.08 2.08 0 0 1-3.34-1.51z" transform="translate(-1805.79 -451.5)"/>
</symbol><symbol id="icon-selective_bidding" viewBox="0 0 19.67 18.55">
    
    <title>
        selective_bidding
    </title>
    <path class="svg-color" d="M2.59 15.55h5.82A2.59 2.59 0 0 1 11 18.14v.41H0v-.41a2.59 2.59 0 0 1 2.59-2.59z"/>
    <path class="svg-color" d="M1821.8 379.93l-10.66-3.16.69-2.32a1.93 1.93 0 0 0-1.3-2.4l-1.85-.55a1.93 1.93 0 0 0-2.4 1.3l-2.2 7.41a1.93 1.93 0 0 0 1.3 2.4l1.85.55a1.93 1.93 0 0 0 2.4-1.3l.69-2.32 10.68 3.16a1.44 1.44 0 0 0 1.79-1 1.44 1.44 0 0 0-.99-1.77z" transform="translate(-1803.16 -371.42)"/>
</symbol><symbol id="icon-settings" viewBox="0 0 17 16.95">
    
    <title>
        settings
    </title>
    <path class="svg-color" d="M1819.6 340.76a.91.91 0 0 1 0-1.69l1.61-.69a.44.44 0 0 0 .23-.57l-1-2.4a.44.44 0 0 0-.57-.23l-1.61.69a.91.91 0 0 1-1.21-1.18l.64-1.61a.44.44 0 0 0-.24-.57l-2.42-1a.44.44 0 0 0-.57.24l-.64 1.61a.91.91 0 0 1-1.69 0l-.68-1.59a.44.44 0 0 0-.57-.23l-2.4 1a.44.44 0 0 0-.23.57l.68 1.59a.91.91 0 0 1-1.18 1.21l-1.63-.65a.44.44 0 0 0-.57.24l-1 2.42a.44.44 0 0 0 .24.57l1.63.65a.91.91 0 0 1 0 1.69l-1.61.69a.44.44 0 0 0-.23.57l1 2.4a.44.44 0 0 0 .57.23l1.61-.69a.91.91 0 0 1 1.21 1.18l-.64 1.61a.44.44 0 0 0 .24.57l2.42 1a.44.44 0 0 0 .57-.24l.64-1.61a.91.91 0 0 1 1.69 0l.68 1.59a.44.44 0 0 0 .57.23l2.4-1a.44.44 0 0 0 .23-.57l-.68-1.59a.91.91 0 0 1 1.18-1.21l1.63.65a.44.44 0 0 0 .57-.24l1-2.42a.44.44 0 0 0-.24-.57zM1813 343a3 3 0 1 1 3-3 3 3 0 0 1-3 3z" transform="translate(-1804.5 -331.52)"/>
</symbol><symbol id="icon-statistics" viewBox="0 0 20 12.85">
    
    <title>
        statistics
    </title>
    <path class="svg-color" d="M1817.45 273a.5.5 0 0 0-.34.85l1.86 1.22-4.33 4.76-4.07-3.05-4 5.06-1.86-1.24-1.66 2.5 4.14 2.76 4-4.94 3.93 2.95L1821 277l1.2 2.15a.48.48 0 0 0 .83-.35V273h-5.55z" transform="translate(-1803 -273)"/>
</symbol><symbol id="icon-teasers" viewBox="0 0 14 17">
    
    <title>
        teasers
    </title>
    <path class="svg-color" d="M1819 228h-12a1 1 0 0 1-1-1v-15a1 1 0 0 1 1-1h5v6a2 2 0 0 0 2 2h6v8a1 1 0 0 1-1 1z" transform="translate(-1806 -211)"/>
    <path class="svg-color" d="M1820 217h-4a2 2 0 0 1-2-2v-4z" transform="translate(-1806 -211)"/>
</symbol><symbol id="icon-to_moderate" viewBox="0 0 16 13">
    
    <title>
        to_moderate
    </title>
    <path class="svg-color" d="M1812 695.8v-2.06a.84.84 0 0 0-1.37-.55l-5.35 4.26a.69.69 0 0 0 0 1.1l5.35 4.26a.84.84 0 0 0 1.37-.55V700c9 0 6 6 6 6a4.33 4.33 0 0 0 3-4c0-3.45-2-6.2-9-6.2z" transform="translate(-1805 -693)"/>
</symbol><symbol id="icon-widgets" viewBox="0 0 16 16">
    
    <title>
        widgets
    </title>
    <rect class="svg-color" width="5" height="4" rx="1" ry="1"/>
    <rect class="svg-color" y="6" width="5" height="4" rx="1" ry="1"/>
    <rect class="svg-color" y="12" width="5" height="4" rx="1" ry="1"/>
    <rect class="svg-color" x="6" width="10" height="4" rx="1" ry="1"/>
    <rect class="svg-color" x="6" y="6" width="10" height="4" rx="1" ry="1"/>
    <rect class="svg-color" x="6" y="12" width="10" height="4" rx="1" ry="1"/>
</symbol></svg>