<svg xmlns="http://www.w3.org/2000/svg" style="display: none;"><defs>
    </defs><symbol id="icon-blocked_content" viewBox="0 0 20 20">

    <path d="M10 .5A9.5 9.5 0 1 1 .5 10 9.5 9.5 0 0 1 10 .5zM3.67 10a6.3 6.3 0 0 0 .73 2.95l8.55-8.55A6.33 6.33 0 0 0 3.67 10zm12.67 0a6.3 6.3 0 0 0-.73-2.95L7.05 15.6a6.33 6.33 0 0 0 9.28-5.6z"/>
</symbol><symbol id="icon-create_widget" viewBox="0 0 20 20">

    <path d="M17.2 8H12V2.8a.8.8 0 0 0-.8-.8H8.8a.8.8 0 0 0-.8.8V8H2.8a.8.8 0 0 0-.8.8v2.4a.8.8 0 0 0 .8.8H8v5.2a.8.8 0 0 0 .8.8h2.4a.8.8 0 0 0 .8-.8V12h5.2a.8.8 0 0 0 .8-.8V8.8a.8.8 0 0 0-.8-.8z"/>
</symbol><symbol id="icon-delete" viewBox="0 0 20 20">

    <rect x=".15" y="8" width="19.7" height="4" rx=".6" ry=".6" transform="rotate(45 9.997 10.001)"/>
    <rect x=".12" y="8" width="19.76" height="4" rx=".6" ry=".6" transform="rotate(135 9.999 10)"/>
</symbol><symbol id="icon-geo_statistics" viewBox="0 0 20 20">

    <path d="M14.24 2a.5.5 0 0 0-.34.85l1.28.84 1.05-.09-2.39 2.6A4.44 4.44 0 0 0 9.4 7.3l-2-1.53-3.9 4.9L2 9.42l-2 2.12 3.94 3.31 4-4.94.11.09a4.52 4.52 0 0 0-.05.55C8 13.12 12 19 12.59 19s4.59-5.88 4.59-8.41a4.55 4.55 0 0 0-1-2.77l2.16-2.47-.13 1.48.86 1.31a.56.56 0 0 0 .93-.35V2h-5.76zm-1.65 10.59a2 2 0 1 1 2-2 2 2 0 0 1-2 2z"/>
</symbol><symbol id="icon-get_sourcecode" viewBox="0 0 20 20">

    <path d="M13 14l4-4-4-4 2-2 4.29 4.29A2.41 2.41 0 0 1 20 10a2.41 2.41 0 0 1-.71 1.71L15 16zM7 14l-4-4 4-4-2-2L.71 8.29A2.41 2.41 0 0 0 0 10a2.41 2.41 0 0 0 .71 1.71L5 16z"/>
    <path transform="rotate(-75.99 10 9.997)" d="M1.75 8.75h16.49v2.5H1.75z"/>
</symbol><symbol id="icon-pause" viewBox="0 0 20 20">

    <rect x="3" y="2.29" width="5" height="15.42" rx="1" ry="1"/>
    <rect x="11" y="2.29" width="5" height="15.42" rx="1" ry="1"/>
</symbol><symbol id="icon-play" viewBox="0 0 20 20">

    <path d="M2.79 16.58V3.42a2.08 2.08 0 0 1 3.34-1.5l9.8 6.53a1.83 1.83 0 0 1 0 3.11l-9.8 6.53a2.08 2.08 0 0 1-3.34-1.51z"/>
</symbol><symbol id="icon-selective_bidding" viewBox="0 0 20 20">

    <path d="M2.76 17h5.81a2.59 2.59 0 0 1 2.59 2.59V20h-11v-.44A2.59 2.59 0 0 1 2.76 17zM18.8 9.93L8.15 6.77l.68-2.32A1.93 1.93 0 0 0 7.53 2l-1.85-.5a1.93 1.93 0 0 0-2.4 1.3l-2.2 7.41a1.93 1.93 0 0 0 1.3 2.4l1.85.55a1.93 1.93 0 0 0 2.4-1.3l.69-2.32L18 12.7a1.44 1.44 0 0 0 1.79-1 1.44 1.44 0 0 0-.99-1.77z"/>
</symbol><symbol id="icon-settings" viewBox="0 0 20 20">

    <path d="M16.6 10.76a.91.91 0 0 1 0-1.69l1.61-.69a.44.44 0 0 0 .23-.57l-1-2.4a.44.44 0 0 0-.57-.23l-1.61.69A.91.91 0 0 1 14 4.7l.64-1.61a.44.44 0 0 0-.24-.57L12 1.56a.44.44 0 0 0-.57.24l-.67 1.6a.91.91 0 0 1-1.69 0l-.68-1.57a.44.44 0 0 0-.57-.23l-2.4 1a.44.44 0 0 0-.23.57l.69 1.62A.91.91 0 0 1 4.7 6l-1.63-.65a.44.44 0 0 0-.57.24L1.53 8a.44.44 0 0 0 .24.57l1.63.67a.91.91 0 0 1 0 1.69l-1.61.69a.44.44 0 0 0-.23.57l1 2.4a.44.44 0 0 0 .57.23l1.61-.69A.91.91 0 0 1 6 15.3l-.64 1.61a.44.44 0 0 0 .24.57l2.42 1a.44.44 0 0 0 .57-.24l.65-1.64a.91.91 0 0 1 1.69 0l.68 1.59a.44.44 0 0 0 .57.23l2.4-1a.44.44 0 0 0 .23-.57l-.68-1.59A.91.91 0 0 1 15.3 14l1.63.65a.44.44 0 0 0 .57-.24l1-2.42a.44.44 0 0 0-.24-.57zM10 13a3 3 0 1 1 3-3 3 3 0 0 1-3 3z"/>
</symbol><symbol id="icon-statistics" viewBox="0 0 20 20">

    <path d="M14.39 3a.5.5 0 0 0-.34.85l1.29.84 1.06-.09-4.85 5.23-4.11-3.06-3.94 4.9L2 10.42l-2 2.12 4 3.31 4-4.94 4 2.95 6.64-7.52-.24 1.49.76 1.31a.49.49 0 0 0 .84-.35V3h-5.61z"/>
</symbol><symbol id="icon-teasers" viewBox="0 0 20 20">

    <path d="M16 18H4a1 1 0 0 1-1-1V2a1 1 0 0 1 1-1h5v6a2 2 0 0 0 2 2h6v8a1 1 0 0 1-1 1z"/>
    <path d="M17 7h-4a2 2 0 0 1-2-2V1z"/>
</symbol><symbol id="icon-to_moderate" viewBox="0 0 20 20">

    <path d="M9 5.8V3.74a.84.84 0 0 0-1.37-.55L2.28 7.45a.69.69 0 0 0 0 1.1l5.35 4.26A.84.84 0 0 0 9 12.26V10c9 0 6 6 6 6a4.33 4.33 0 0 0 3-4c0-3.45-2-6.2-9-6.2z"/>
</symbol><symbol id="icon-widgets" viewBox="0 0 20 20">

    <rect x="2" y="2" width="5" height="4" rx=".8" ry=".8"/>
    <rect x="2" y="8" width="5" height="4" rx=".8" ry=".8"/>
    <rect x="2" y="14" width="5" height="4" rx=".8" ry=".8"/>
    <rect x="9" y="2" width="9" height="4" rx=".8" ry=".8"/>
    <rect x="9" y="8" width="9" height="4" rx=".8" ry=".8"/>
    <rect x="9" y="14" width="9" height="4" rx=".8" ry=".8"/>
</symbol></svg>