<svg id="main" xmlns="http://www.w3.org/2000/svg" viewBox="0 0 20 16.61"><defs><style>.cls-1{fill:#2a387a;}</style></defs><title>get_sourcecode</title><path class="cls-1" d="M1816,664l4-4-4-4,2-2,4.29,4.29A2.41,2.41,0,0,1,1823,660h0a2.41,2.41,0,0,1-.71,1.71L1818,666Z" transform="translate(-1803 -651.7)"/><path class="cls-1" d="M1810,664l-4-4,4-4-2-2-4.29,4.29A2.41,2.41,0,0,0,1803,660h0a2.41,2.41,0,0,0,.71,1.71L1808,666Z" transform="translate(-1803 -651.7)"/><rect class="cls-1" x="1804.75" y="658.75" width="16.49" height="2.5" transform="translate(-1069.41 1607.51) rotate(-75.99)"/></svg>