<svg id="main" xmlns="http://www.w3.org/2000/svg" viewBox="0 0 19.67 18.55"><defs><style>.cls-1{fill:#2a387a;}</style></defs><title>selective_bidding</title><path class="cls-1" d="M2.59,15.55H8.41A2.59,2.59,0,0,1,11,18.14v0.41a0,0,0,0,1,0,0H0a0,0,0,0,1,0,0V18.14A2.59,2.59,0,0,1,2.59,15.55Z"/><path class="cls-1" d="M1821.8,379.93l-10.66-3.16,0.69-2.32a1.93,1.93,0,0,0-1.3-2.4l-1.85-.55a1.93,1.93,0,0,0-2.4,1.3l-2.2,7.41a1.93,1.93,0,0,0,1.3,2.4l1.85,0.55a1.93,1.93,0,0,0,2.4-1.3l0.69-2.32L1821,382.7a1.44,1.44,0,0,0,1.79-1h0A1.44,1.44,0,0,0,1821.8,379.93Z" transform="translate(-1803.16 -371.42)"/></svg>