<svg id="main" xmlns="http://www.w3.org/2000/svg" viewBox="0 0 17 16.95"><defs><style>.cls-1{fill:#2a387a;}</style></defs><title>settings</title><path class="cls-1" d="M1819.6,340.76a0.91,0.91,0,0,1,0-1.69l1.61-.69a0.44,0.44,0,0,0,.23-0.57l-1-2.4a0.44,0.44,0,0,0-.57-0.23l-1.61.69a0.91,0.91,0,0,1-1.21-1.18l0.64-1.61a0.44,0.44,0,0,0-.24-0.57l-2.42-1a0.44,0.44,0,0,0-.57.24l-0.64,1.61a0.91,0.91,0,0,1-1.69,0l-0.68-1.59a0.44,0.44,0,0,0-.57-0.23l-2.4,1a0.44,0.44,0,0,0-.23.57l0.68,1.59a0.91,0.91,0,0,1-1.18,1.21l-1.63-.65a0.44,0.44,0,0,0-.57.24l-1,2.42a0.44,0.44,0,0,0,.24.57l1.63,0.65a0.91,0.91,0,0,1,0,1.69l-1.61.69a0.44,0.44,0,0,0-.23.57l1,2.4a0.44,0.44,0,0,0,.57.23l1.61-.69a0.91,0.91,0,0,1,1.21,1.18l-0.64,1.61a0.44,0.44,0,0,0,.24.57l2.42,1a0.44,0.44,0,0,0,.57-0.24l0.64-1.61a0.91,0.91,0,0,1,1.69,0l0.68,1.59a0.44,0.44,0,0,0,.57.23l2.4-1a0.44,0.44,0,0,0,.23-0.57l-0.68-1.59a0.91,0.91,0,0,1,1.18-1.21l1.63,0.65a0.44,0.44,0,0,0,.57-0.24l1-2.42a0.44,0.44,0,0,0-.24-0.57ZM1813,343a3,3,0,1,1,3-3A3,3,0,0,1,1813,343Z" transform="translate(-1804.5 -331.52)"/></svg>